<?xml version="1.0" encoding="utf-8"?>
<!-- Generator: Adobe Illustrator 18.1.1, SVG Export Plug-In . SVG Version: 6.00 Build 0)  -->
<svg version="1.1" id="Layer_1" xmlns="http://www.w3.org/2000/svg" xmlns:xlink="http://www.w3.org/1999/xlink" x="0px" y="0px"
	 viewBox="0 0 977.9 1080" enable-background="new 0 0 977.9 1080" xml:space="preserve">
<path fill="#4755A3" d="M680.1,311.8c3.9-0.1,7.3,0.2,10.3,1.3c11.9,4.2,18.7,11.2,23.2,23.5c1.2,3.2,2.8,10.7,1.4,15
	c-0.8,2.6-1.1,5.3-2.2,7.7c-4,8.6-10.1,14.4-18.1,18.6c-3.2,1.7-6.9,1.6-10.9,2.8c-0.8,0-1.7,0-2.5,0c-4.7,0-8.1-0.9-11.4-2.2
	c-9.3-3.7-16.4-10.1-20.5-19.6c-0.7-2.3-1.3-4.5-2-6.8c0-0.9-0.1-1.9-0.1-2.8c-0.8-2.6-0.1-8.7,0.6-11.1
	c3.5-11.7,11.2-20.6,22.2-24.5c1.7-0.6,4-0.9,6-1.5C677.4,311.8,678.8,312.4,680.1,311.8z"/>
<path fill="#4755A3" d="M284.8,342.1c5.8,1.7,4.8,5.6,0.9,8.5c-1.3-0.6-2.4-0.3-3.4-1c-0.6-0.4-0.9-1.4-1.2-2.2
	C279.9,344.1,283,343.1,284.8,342.1z"/>
<path fill="#F15C40" d="M480.1,362.6c16.2-0.3,17.4,19.4,4.1,23.2c-8.8,2.5-16.3-7.8-13.3-15.8c1-2.7,3.7-5.4,6.4-6.5
	C478.2,363.2,479.2,362.9,480.1,362.6z"/>
<path fill="#F15C40" d="M432.7,368.5c5.4-0.1,8.4,2.5,10.6,5.6c0.5,0.6,2.3,2.7,1.8,3.7c0.7,1.5,1.1,4.7,0.4,6.7
	c-1.7,4.8-4.9,8.1-10.3,9.8c-0.8,0.2-2.4,0.1-3.3-0.1c-6.8-1.3-13.8-7.3-11.3-15.8c1.3-4.6,4.7-7.3,8.8-9.2
	C430.4,368.9,431.5,368.7,432.7,368.5z"/>
<path fill="#F15C40" d="M530.2,370.7c6,0,12,5.1,10.9,11.6c-0.1,0.8-0.2,1.6-0.3,2.4c-1.6,3.6-4.5,6.3-8.8,7.2
	c-7.5,1.6-13.7-7.1-11.4-14c0.8-2.4,3.3-5.1,5.5-6.2C527.1,371.3,529.4,371.3,530.2,370.7z"/>
<path fill="#4755A3" d="M729.3,381.6c4-0.1,7.2,0.3,10.2,1.2c15.5,4.3,30.9,24.5,21.1,44.7c-3.8,7.8-10.1,14-18.6,17.4
	c-3.2,1.3-6.5,0.9-10.1,2c-1,0.3-3.4-0.3-4.2-0.5c-1.8-0.6-3-0.1-4.7-0.6c-1.6-0.5-3.3-1.4-4.7-2.1c-7.5-3.8-13.7-9.1-17.2-17.4
	c-0.9-2.2-1.3-4.7-2-7.1c0-1.3-0.1-2.7-0.1-4c-0.7-2.5,0.1-6.9,0.8-9.2c3.2-10.1,9.7-17.8,18.6-21.8c2.3-0.7,4.6-1.5,7-2.2
	C726.8,381.7,728.1,382.1,729.3,381.6z"/>
<path fill="#F15C40" d="M387.8,388.7c6.7,0.6,11.3,3.9,12.9,9.4c2,6.6-0.9,13.5-5.2,16c-1.2,0.7-2.2,0.9-3.6,1.6
	c-1.1,0.6-3.2,1.3-5.1,1c-11.5-1.8-17-12.1-10.5-22.5c1.5-2.4,5-4.3,8-5.2C385.5,388.9,386.6,388.8,387.8,388.7z"/>
<path fill="#F15C40" d="M575.9,393c6.1,0.3,12,6.1,9.3,12.9c-1.4,3.5-4.5,5.4-8.7,6.2c-5.1,1-11.5-6.6-9.4-12.3
	C568.8,395.3,571.4,394.7,575.9,393z"/>
<path fill="#4755A3" d="M234.8,408.2c3.3,0.5,4.4,2.4,5.7,5.3c1.1,2.6-4.1,7.6-6.4,6.8c-4.2-1.5-7.3-5.4-4-9.8
	C231.3,408.9,233.4,409,234.8,408.2z"/>
<path fill="#F15C40" d="M347.2,422.7c9.3-0.1,13.6,4.1,16,10.7c0.1,0.9,0.2,1.7,0.3,2.6c0.6,2.4,0,6.1-1.1,8
	c-2.6,4.6-6.1,7.6-12.1,8.8c-10.1,1.9-19.7-10.2-16-19.6c1.7-4.4,5-8,9.4-9.7C344.8,423.2,346,422.9,347.2,422.7z"/>
<path fill="#F15C40" d="M614.1,429.4c10.8-0.2,12.1,13.9,3.4,16.4c-6.6,1.9-13.4-5.3-10.2-11.3C608.9,431.1,610.5,430.8,614.1,429.4
	z"/>
<path fill="#4755A3" d="M495.7,444.1c0.6,0.4,0.3,2.2,0.3,3.2c-0.1,3-0.1,6-0.2,9c0,13.2-0.5,25.8-4.1,35.2
	c-3.6,9.4-10,17.3-17.5,22.8c-4.7,3.5-10.3,5.8-15.4,8.9c-12.5,7.3-25.6,13.9-38.2,21.3c-6.1,3.4-12.2,6.8-18.3,10.1
	c-1.7,1-5.4,3.8-7.6,4c0-0.1,0-0.1,0-0.2c0-4,0.1-8.1,0.1-12.1c0-5.5-0.4-12.9,0.5-17.9c0.1-1.8,0.1-3.5,0.2-5.3
	c0.7-3.4,1.8-6.9,2.8-9.8c3.9-10.8,10.5-19.6,19.3-25.5c5.7-3.8,12.1-6.7,18.1-10.2C455.7,466.4,475.7,455.2,495.7,444.1z"/>
<path fill="#4755A3" d="M755.5,460.4c21.5-0.4,38.9,18.9,31.3,40.7c-2.9,8.3-9.7,14.7-17.9,18.6c-2.3,1.1-5.1,1.1-8.1,2
	c-0.9,0-1.8,0-2.7,0c-5.8,0-9.6-1.3-13.2-3.4c-1-0.6-1.9-0.8-2.9-1.4c-0.1,0-0.1,0-0.2,0c-1.8-1.9-4.5-3-6-5.2
	c-2.5-3.7-5.5-7.2-7-12.1c-0.6-1.9-0.4-3.6-1-5.8c-0.6-2.3-0.6-6,0.1-8.4c0.5-1.8,1-3.5,1.5-5.3c3.3-8.8,9.6-13.2,17.1-17.5
	c1.6-0.9,4.2-1.4,5.7-1.8C753.4,460.6,754.7,461,755.5,460.4z"/>
<path fill="#F15C40" d="M321.6,465.2c10.5-0.1,20.6,9.4,16.9,20.9c-2,6.2-7,10-14.1,11.4c-3,0.6-6.7-0.7-8.4-1.8
	c-5.6-3.7-11.4-9-8.8-18.8c1.2-4.5,5.1-8.5,9.3-10.4C318.1,465.7,320,465.9,321.6,465.2z"/>
<path fill="#F15C40" d="M536.2,470.5c0.2,0,0.5,0,0.7,0c1.5,1.2,2.9,2.5,4.4,3.7c2.2,1.8,4.4,3.6,6.6,5.5
	c6.5,5.6,13.1,11.1,19.6,16.7c6.3,4.9,12.7,9.9,16.4,17.3c0.3,0.5,0.5,1,0.7,1.5c5.4,12,5,28.1,4.7,45.2c-0.2,0-0.4,0-0.6,0
	c-0.6-1.2-2.4-2.1-3.4-2.9c-3-2.5-5.9-5-8.9-7.5c-6.9-5.9-13.9-11.8-20.8-17.7c-4-3.1-8.2-6.4-11.1-10.5c-3.4-4.8-5.5-10.6-7.2-17.1
	c-0.4-2.4-0.8-4.8-1.2-7.3C536.2,488.5,536.2,479.5,536.2,470.5z"/>
<path fill="#F15C40" d="M639.8,474.1c9.5-0.1,10.9,12.4,1.5,14.4c-4.8,1-9.1-5.6-7.2-10c0.6-1.3,2.1-2.9,3.4-3.6
	C638.4,474.5,639.3,474.7,639.8,474.1z"/>
<path fill="#4755A3" d="M206.8,483.1c10.6-0.2,11.8,13.8,1.2,15.9c-4.6,0.9-9.4-5.8-7.8-10.4c0.6-1.7,2.6-4,4.5-4.8
	C205.4,483.5,206.3,483.5,206.8,483.1z"/>
<path fill="#F15C40" d="M310,512.1c14.7-0.2,22.7,14.9,15.2,27.6c-2,3.4-10.4,9.7-17.3,7.6c-3-0.9-5.1-2.7-7.9-3.5
	c-0.3-1.7-2.8-3.1-3.7-4.6c-0.7-1.4-1.3-2.9-2-4.3c-0.1-0.9-0.2-1.7-0.3-2.6c-2.4-8.7,5.3-16.5,10.4-18.9
	C306.3,513,308.2,512.6,310,512.1z"/>
<path fill="#F15C40" d="M652.1,523.7c4.8,0.2,5,3.3,6.8,6.8c-0.7,0.8-0.8,2-1.4,2.9c-1.8,2.7-5.9,3.2-8.6,1.1
	c-2.6-2.1-2.8-6.6-0.3-9.1C649.5,524.5,650.9,524.4,652.1,523.7z"/>
<path fill="#4755A3" d="M760.5,543.7c10-0.2,16.6,2.9,21.3,8.3c0.5,0.6,4.9,4.9,4.3,5.6c0.5,0.8,3.5,5.9,3,6.8
	c1.5,3.3,1.8,10.8,0.4,14.4c-4.6,11.7-10.9,18.9-24.8,21.7c-4.5,0.9-9.7-1-12.5-2c-8.1-2.8-14.2-9.3-17.2-17.4
	c-0.4-1.9-0.9-3.8-1.3-5.7c0-1.1,0-2.1,0-3.2c-0.6-2.2,0.6-7.4,1.3-9.3c3.4-8.6,9.2-13.8,17.1-17.6c1.8-0.9,3.6-0.9,5.7-1.5
	C758.7,543.7,759.6,543.7,760.5,543.7z"/>
<path fill="#F15C40" d="M310.7,560.4c11.1-0.1,15.8,4.1,19.6,11.2c1.8,3.5,2.5,10.6,0.4,14.5c-3.7,7-7,9.1-15.1,11.6
	c-2.4,0.8-7.3-0.5-8.6-1.2c-0.9-0.3-1.8-0.7-2.7-1c-4.7-3.3-7.2-6.6-9.5-12.4c0-0.9-0.1-1.7-0.1-2.6c-0.4-1.4-0.5-3.8,0.1-5.6
	c1.8-5.9,5.4-10.6,10.6-13.1C307.1,561.1,309,561.1,310.7,560.4z"/>
<path fill="#7C5685" d="M395.5,560.7c2.1,0.1,8.5,4.7,10.6,5.8c7.7,4.3,15.5,8.6,23.2,12.9c8.7,4.8,17.4,9.7,26.1,14.5
	c4.9,2.9,9.9,5.2,14.4,8.4c4.2,3,7.4,6.8,10.4,11c1.8,2.5,3.9,5.6,5.1,8.7c1.3,3.5,2.3,7.3,3.2,11.1c0,1.7,0.1,3.3,0.1,5
	c0.9,3.4,0.3,8.6,0.3,12.5c0,4.9,0.3,10.4-0.2,14.9c-2-0.1-8.7-4.6-10.6-5.7c-8.2-4.6-16.4-9.1-24.5-13.6
	c-7.8-4.3-15.6-8.5-23.2-12.9c-5.3-3.1-11-5.5-15.8-9.1c-6.4-4.7-12.3-11.6-15.5-19.4C394.5,593.7,395.3,576.4,395.5,560.7z"/>
<path fill="#B35866" d="M590.5,561.7c0.1,15.5,1.2,33-3.7,43.9c-6.8,15-18.7,20.9-32.8,28.5c-7.7,4.1-15.6,8.2-23.2,12.5
	c-8.5,4.9-17.3,9.4-26.1,14c-2.1,1.1-7.6,5-10,5c-0.1-12.2-1.2-27.8,1.6-37.6c7.8-27.3,36.6-33.8,58.3-47.2
	c8-4.9,16.6-9.2,25.1-13.5C581.9,566.1,588,561.8,590.5,561.7z"/>
<path fill="#4755A3" d="M202.6,561.9c6.5-0.1,9.3,2.9,10.7,8.1c0.4,1.3,0.5,3.3-0.1,4.8c-1.7,3.9-4.5,5.4-8.8,6.7
	c-0.7,0.2-1.9-0.2-2.4-0.4c-0.7-0.2-1.6-0.2-2.4-0.6c-3.4-1.7-6.9-6.7-5-12c0.8-2.3,3.2-4.8,5.8-5.9
	C201,562.3,202.1,562.3,202.6,561.9z"/>
<path fill="#F15C40" d="M650.3,574.1c6.4,0.9,5.1,7.6,0.9,9.8c-2.1,1.1-6-3.3-5.3-5.5C647,575.3,648.1,575.8,650.3,574.1z"/>
<path fill="#F15C40" d="M328.4,606.2c10.4-0.1,17,5.7,19.8,13.3c1.5,4,2,10.4-0.1,14.4c-3,5.6-6.8,8.7-12.8,11.3
	c-1.6,0.3-3.2,0.5-4.8,0.8c-2,0.6-7.7-1.4-8.9-2c-6.8-3.3-14-11.1-11.4-22.2c1.7-7.1,6.2-11.6,12.2-14.4
	C324.2,606.6,326.5,606.9,328.4,606.2z"/>
<path fill="#F15C40" d="M633.9,622.6c1.9,0.4,3.4,1.8,3.6,3.7c-0.9,1.8-2.2,3.9-4.7,2.7c-0.5-0.2-1-0.3-1.3-0.7
	C629.6,625.3,631.7,623.8,633.9,622.6z"/>
<path fill="#4755A3" d="M741.3,624.1c14.4-0.3,22.1,7.7,26.1,17.9c1.1,2.8,2.5,7.6,1.3,11.4c0.1,0.6,0.1,1.1,0.2,1.7
	c-3.6,11.5-9.4,17.3-20.3,21.3c-5,1.9-12.2,0.5-16.1-1.4c-0.9-0.5-2.2-0.7-3.3-1.3c-7.4-3.8-15.6-16-12.7-28.5
	c1.2-4.9,3.7-8.4,6.1-12c1.3-1.9,5-3.4,5.8-5.4c2,0,3-1.1,4.2-1.8c1.3-0.8,3.1-0.9,4.3-1.4C737.9,624.3,740.3,624.9,741.3,624.1z"/>
<path fill="#4755A3" d="M221.9,638.7c8.2-0.2,16.3,7.6,12,16.4c-1.9,3.8-5,5.5-9.4,6.9c-2.1,0.7-5.1-0.7-6.2-1.4
	c-4.3-2.6-5-3.8-6.5-9c-0.3-1-0.4-2.9,0-4c1.2-3.7,3.7-6.6,7.4-8.4C220.2,639.1,221.1,638.9,221.9,638.7z"/>
<path fill="#F15C40" d="M359.6,646.8c14.2-0.2,25.9,13.5,20.3,28.6c-2.1,5.7-6.9,9.8-12.3,12.2c-2.1,0.4-4.2,0.9-6.3,1.3
	c-2.8,0.9-8.5-1.3-10-2.2c-6.3-3.5-10.3-7.8-11.6-16.2c-0.3-1.7-0.6-3.2-0.1-4.8c0.7-2.1,0.2-3.8,1.1-5.5c2.8-5.5,6.5-9.7,12.3-12.1
	C355.2,647.6,357.4,647.2,359.6,646.8z"/>
<path fill="#F15C40" d="M602.9,665.5c0.4,0,0.9,0,1.3,0c0.7,0.9,1.5,1.2,1.6,2.7c-0.5,1-1,1.3-1.8,2c-1.9,0-2.1-0.7-2.9-1.7
	C601.1,666.5,601.9,666.3,602.9,665.5z"/>
<path fill="#4755A3" d="M700.3,697.4c2.7,0.3,5.4,0.2,7.8,1c7.7,2.6,12.8,8.4,15.8,15.7c4.7,11.4-3,23.4-9.2,28.1
	c-1.4,1-3,1.3-4.5,2.3c-1.8,1.2-7.8,3.3-11,2.7c-1.7-0.2-3.3-0.5-5-0.7c-9.5-3.4-12.8-7.2-16.9-15.6c-1.7-3.5-2.6-10.4-1-14.7
	c0.7-2,1.4-4.3,2.5-6.1c2.6-4.5,7-8.6,11.9-10.7c1.7-0.7,3.7-1.2,5.5-1.5C697.6,697.7,699,697.5,700.3,697.4z"/>
<path fill="#4755A3" d="M265.2,708.2c8.6,0.1,17,9.4,13.1,18.3c-1.6,3.7-4.5,6.6-8.2,8.2c-1.2,0.5-2.8,0.4-4.2,0.8
	c-2.1,0.6-5-0.8-6.2-1.5c-4.8-2.9-10.2-8.8-7.2-16.8c1.5-3.9,4.8-6.4,8.5-8.2C262.5,708.8,263.9,708.5,265.2,708.2z"/>
<path fill="#4755A3" d="M636.5,756.5c11.8-0.1,19,6.7,21.8,15.3c1.2,3.7,2.2,9.5,0.7,13.9c-3,9.1-9.8,14.8-20.3,16.5
	c-9.1,1.5-16.5-5.3-20.5-9.5c-0.1-0.3-0.1-0.7-0.2-1c-1.1-1.8-1.8-3.4-2.7-5.6c-1.3-3.3-1.9-9.3-0.5-13c2.9-7.6,7.1-11.5,13.9-15.1
	C631,756.9,634.2,757.4,636.5,756.5z"/>
<path fill="#4755A3" d="M327.5,764c10.2-0.1,13.6,4.9,16.5,11.7c0,0.9,0.1,1.9,0.1,2.8c0.5,1.8-0.1,5-0.8,6.5
	c-2.2,4.9-6.3,7.9-11.9,9.8c-2.4,0.8-6.9-0.5-8.1-1.2c-1.2-0.7-2.2-0.9-3.3-1.6c-4.2-2.7-8.2-10-6-16.9c1.2-3.8,4.4-7.6,8-9.5
	C323.7,764.7,325.6,764.8,327.5,764z"/>
<path fill="#4755A3" d="M562.3,793c10.3-0.1,17,5.9,20,13.1c0.5,1.1,0.5,2.5,0.9,4.1c0.8,2.9,0.6,7.4-0.3,9.9
	c-2.2,6.3-7.1,11.4-13.4,13.9c-1.9,0.7-4.2,0.4-6.4,1c-0.4-0.1-0.9-0.1-1.3-0.2c-0.9,0-1.9,0-2.8,0c-1.7-0.3-3.7-1.2-5.1-2
	c-2.3-1.2-4.2-2.1-6-3.8c-3.6-3.3-8.2-12.6-5.8-20.1c2.4-7.4,7.2-12.2,14-15C557.9,793.2,560.7,793.7,562.3,793z"/>
<path fill="#4755A3" d="M402,796.8c9.7-0.1,14.7,4.8,17.2,11.8c1.2,3.4,1.7,8.6-0.1,11.9c-3.1,5.9-7.2,9.2-14.6,10.7
	c-3.3,0.7-7.1-0.9-9-2c-6.1-3.5-12.2-10.7-8.9-21c1.5-4.4,5.5-8.2,9.8-10.2C397.8,797.5,401,797.6,402,796.8z"/>
<path fill="#4755A3" d="M482.1,806.5c12.1-0.2,17.5,7.1,19.7,17c0.7,3.1,0,7-1.1,9.4c-3.2,6.9-8.6,11-17.6,12
	c-3.4,0.4-7.2-1.4-9.3-2.6c-6.4-3.8-13.3-12.8-9-23.5c2-5,5.9-8.7,10.7-10.9C477.7,806.9,479.8,807.4,482.1,806.5z"/>
</svg>
